<svg width="18" height="20" viewBox="0 0 18 20" fill="none" xmlns="http://www.w3.org/2000/svg">
<path d="M1.6531 15.0462L0.958886 15.3301H0.958886L1.6531 15.0462ZM1.30609 9.44526L0.582369 9.24847L0.582369 9.24847L1.30609 9.44526ZM16.6939 9.44525L17.4176 9.24846L16.6939 9.44525ZM16.3469 15.0462L15.6527 14.7624L15.6527 14.7624L16.3469 15.0462ZM11.0365 18.8426L10.9211 18.1015L11.0365 18.8426ZM6.96352 18.8426L6.84819 19.5837L6.96352 18.8426ZM5.08242 5.7854L4.93367 5.0503L5.08242 5.7854ZM12.9176 5.7854L12.7688 6.5205L12.9176 5.7854ZM6.21479 18.7261L6.33011 17.985L6.21479 18.7261ZM1.74599 15.2734L2.4402 14.9895H2.4402L1.74599 15.2734ZM11.7852 18.7261L11.9005 19.4671V19.4671L11.7852 18.7261ZM16.254 15.2734L16.9482 15.5573V15.5573L16.254 15.2734ZM16.6174 9.1638L15.8937 9.36058V9.36059L16.6174 9.1638ZM1.38262 9.1638L2.10635 9.36059H2.10635L1.38262 9.1638ZM12.1775 6.02577L11.4909 5.72404L12.1775 6.02577ZM11.2779 6.2088C11.1112 6.58802 11.2836 7.03052 11.6628 7.19716C12.042 7.3638 12.4845 7.19148 12.6511 6.81226L11.2779 6.2088ZM5.82248 6.02577L6.50911 5.72404V5.72404L5.82248 6.02577ZM5.34887 6.81226C5.51551 7.19148 5.95802 7.3638 6.33723 7.19716C6.71645 7.03052 6.88877 6.58802 6.72213 6.2088L5.34887 6.81226ZM8.24293 1.0742L8.36911 1.81351L8.36911 1.81351L8.24293 1.0742ZM8.36039 1.05415L8.23421 0.314844L8.23421 0.314844L8.36039 1.05415ZM9.63961 1.05415L9.51343 1.79346L9.51343 1.79346L9.63961 1.05415ZM9.75707 1.0742L9.88325 0.334891L9.88325 0.33489L9.75707 1.0742ZM12.4253 3.54836L13.1579 3.38741L12.4253 3.54836ZM5.57466 3.54836L6.30719 3.70931L5.57466 3.54836ZM11.6699 17.985L10.9211 18.1015L11.1518 19.5837L11.9005 19.4671L11.6699 17.985ZM7.07884 18.1015L6.33011 17.985L6.09946 19.4671L6.84819 19.5837L7.07884 18.1015ZM15.8937 9.36059L15.9702 9.64204L17.4176 9.24846L17.3411 8.96701L15.8937 9.36059ZM15.6527 14.7624L15.5598 14.9896L16.9482 15.5573L17.0411 15.3301L15.6527 14.7624ZM2.4402 14.9895L2.34731 14.7624L0.958886 15.3301L1.05177 15.5572L2.4402 14.9895ZM2.02981 9.64205L2.10635 9.36059L0.658901 8.96701L0.582369 9.24847L2.02981 9.64205ZM2.34731 14.7624C1.67945 13.129 1.56875 11.3377 2.02981 9.64204L0.582369 9.24847C0.0344771 11.2634 0.166665 13.3925 0.958886 15.3301L2.34731 14.7624ZM15.9702 9.64204C16.4313 11.3377 16.3205 13.129 15.6527 14.7624L17.0411 15.3301C17.8333 13.3926 17.9655 11.2634 17.4176 9.24846L15.9702 9.64204ZM10.9211 18.1015C9.64878 18.2995 8.35118 18.2995 7.07884 18.1015L6.84819 19.5837C8.27338 19.8054 9.72659 19.8054 11.1518 19.5837L10.9211 18.1015ZM5.23117 6.5205C7.71609 6.01766 10.2839 6.01766 12.7688 6.5205L13.0663 5.0503C10.3851 4.50773 7.61493 4.50773 4.93367 5.0503L5.23117 6.5205ZM6.33011 17.985C4.55413 17.7086 3.08232 16.56 2.4402 14.9895L1.05177 15.5572C1.9021 17.6369 3.82848 19.1137 6.09946 19.4671L6.33011 17.985ZM11.9005 19.4671C14.1715 19.1137 16.0979 17.6369 16.9482 15.5573L15.5598 14.9896C14.9177 16.56 13.4458 17.7086 11.6699 17.985L11.9005 19.4671ZM12.7688 6.5205C14.3088 6.83212 15.5082 7.94301 15.8937 9.36058L17.3411 8.96701C16.7992 6.974 15.1334 5.46858 13.0663 5.0503L12.7688 6.5205ZM4.93367 5.0503C2.86662 5.46858 1.20082 6.974 0.658901 8.96701L2.10635 9.36059C2.4918 7.94301 3.69121 6.83212 5.23117 6.5205L4.93367 5.0503ZM11.4909 5.72404L11.2779 6.2088L12.6511 6.81226L12.8642 6.3275L11.4909 5.72404ZM5.13585 6.3275L5.34887 6.81226L6.72213 6.2088L6.50911 5.72404L5.13585 6.3275ZM8.36911 1.81351L8.48657 1.79346L8.23421 0.314844L8.11675 0.334891L8.36911 1.81351ZM9.51343 1.79346L9.63089 1.81351L9.88325 0.33489L9.76579 0.314844L9.51343 1.79346ZM11.6928 3.70931C11.8411 4.38397 11.7712 5.08613 11.4909 5.72404L12.8642 6.3275C13.2716 5.40023 13.3747 4.37415 13.1579 3.38741L11.6928 3.70931ZM4.84213 3.38741C4.62533 4.37415 4.72837 5.40023 5.13585 6.3275L6.50911 5.72404C6.22878 5.08613 6.15895 4.38397 6.30719 3.70931L4.84213 3.38741ZM8.48657 1.79346C8.82612 1.73551 9.17389 1.73551 9.51343 1.79346L9.76579 0.314844C9.25921 0.228385 8.74079 0.228385 8.23421 0.314844L8.48657 1.79346ZM13.1579 3.38741C12.8102 1.80521 11.5013 0.61105 9.88325 0.334891L9.63089 1.81351C10.6808 1.99271 11.4835 2.75649 11.6928 3.70931L13.1579 3.38741ZM6.30719 3.70931C6.51654 2.75649 7.31918 1.99271 8.36911 1.81351L8.11675 0.334891C6.49869 0.61105 5.18977 1.80521 4.84213 3.38741L6.30719 3.70931Z" fill="white"/>
</svg>
