<svg width="20" height="20" viewBox="0 0 20 20" fill="none" xmlns="http://www.w3.org/2000/svg">
<path d="M17.9219 6.72248C17.913 6.05067 17.7872 5.38554 17.5503 4.75685C17.3448 4.22655 17.031 3.74494 16.6288 3.34279C16.2267 2.94065 15.7451 2.62681 15.2148 2.42133C14.5942 2.18836 13.9385 2.06239 13.2758 2.04879C12.4224 2.01064 12.1519 2 9.98581 2C7.81972 2 7.54208 2 6.69498 2.04879C6.03252 2.06249 5.37718 2.18846 4.75685 2.42133C4.22646 2.62667 3.74478 2.94045 3.34262 3.34262C2.94045 3.74478 2.62667 4.22646 2.42133 4.75685C2.1879 5.37699 2.0622 6.03247 2.04967 6.69498C2.01153 7.54917 2 7.81972 2 9.98581C2 12.1519 2 12.4287 2.04967 13.2766C2.06298 13.9401 2.18805 14.5947 2.42133 15.2165C2.62701 15.7468 2.94103 16.2283 3.34333 16.6302C3.74563 17.0322 4.22735 17.3459 4.75773 17.5512C5.37637 17.7935 6.03182 17.9285 6.69587 17.9503C7.55006 17.9885 7.8206 18 9.9867 18C12.1528 18 12.4304 18 13.2775 17.9503C13.9403 17.9373 14.596 17.8116 15.2165 17.5787C15.7467 17.373 16.2282 17.059 16.6303 16.6569C17.0324 16.2548 17.3463 15.7733 17.5521 15.2432C17.7853 14.6222 17.9104 13.9676 17.9237 13.3033C17.9619 12.4499 17.9734 12.1794 17.9734 10.0124C17.9716 7.84633 17.9716 7.57135 17.9219 6.72248ZM9.98049 14.0821C7.71505 14.0821 5.87981 12.2468 5.87981 9.98137C5.87981 7.71593 7.71505 5.8807 9.98049 5.8807C11.0681 5.8807 12.1111 6.31273 12.8801 7.08176C13.6491 7.85078 14.0812 8.89381 14.0812 9.98137C14.0812 11.0689 13.6491 12.112 12.8801 12.881C12.1111 13.65 11.0681 14.0821 9.98049 14.0821ZM14.2444 6.68522C14.1188 6.68534 13.9944 6.66068 13.8783 6.61267C13.7622 6.56466 13.6568 6.49423 13.568 6.40542C13.4792 6.3166 13.4087 6.21114 13.3607 6.09508C13.3127 5.97901 13.2881 5.85462 13.2882 5.72902C13.2882 5.6035 13.3129 5.47922 13.3609 5.36326C13.409 5.24731 13.4794 5.14194 13.5681 5.05319C13.6569 4.96444 13.7622 4.89404 13.8782 4.84601C13.9941 4.79798 14.1184 4.77326 14.2439 4.77326C14.3694 4.77326 14.4937 4.79798 14.6097 4.84601C14.7256 4.89404 14.831 4.96444 14.9198 5.05319C15.0085 5.14194 15.0789 5.24731 15.1269 5.36326C15.175 5.47922 15.1997 5.6035 15.1997 5.72902C15.1997 6.25768 14.7722 6.68522 14.2444 6.68522Z" fill="white"/>
<path d="M9.99469 12.485C11.3768 12.485 12.4972 11.3646 12.4972 9.98248C12.4972 8.60039 11.3768 7.47998 9.99469 7.47998C8.6126 7.47998 7.49219 8.60039 7.49219 9.98248C7.49219 11.3646 8.6126 12.485 9.99469 12.485Z" fill="white"/>
</svg>
