<svg width="155" height="118" viewBox="0 0 155 118" fill="none" xmlns="http://www.w3.org/2000/svg">
<path d="M2.5 0L4.87764 1.72746L3.96946 4.52254H1.03054L0.122359 1.72746L2.5 0Z" fill="white"/>
<path d="M27.5 0L29.8776 1.72746L28.9695 4.52254H26.0305L25.1224 1.72746L27.5 0Z" fill="white"/>
<path d="M52.5 0L54.8776 1.72746L53.9695 4.52254H51.0305L50.1224 1.72746L52.5 0Z" fill="white"/>
<path d="M77.5 0L79.8776 1.72746L78.9695 4.52254H76.0305L75.1224 1.72746L77.5 0Z" fill="white"/>
<path d="M2.5 23L4.87764 24.7275L3.96946 27.5225H1.03054L0.122359 24.7275L2.5 23Z" fill="white"/>
<path d="M27.5 23L29.8776 24.7275L28.9695 27.5225H26.0305L25.1224 24.7275L27.5 23Z" fill="white"/>
<path d="M52.5 23L54.8776 24.7275L53.9695 27.5225H51.0305L50.1224 24.7275L52.5 23Z" fill="white"/>
<path d="M77.5 23L79.8776 24.7275L78.9695 27.5225H76.0305L75.1224 24.7275L77.5 23Z" fill="white"/>
<path d="M2.5 46L4.87764 47.7275L3.96946 50.5225H1.03054L0.122359 47.7275L2.5 46Z" fill="white"/>
<path d="M27.5 46L29.8776 47.7275L28.9695 50.5225H26.0305L25.1224 47.7275L27.5 46Z" fill="white"/>
<path d="M52.5 46L54.8776 47.7275L53.9695 50.5225H51.0305L50.1224 47.7275L52.5 46Z" fill="white"/>
<path d="M77.5 46L79.8776 47.7275L78.9695 50.5225H76.0305L75.1224 47.7275L77.5 46Z" fill="white"/>
<path d="M2.5 67L4.87764 68.7275L3.96946 71.5225H1.03054L0.122359 68.7275L2.5 67Z" fill="white"/>
<path d="M27.5 67L29.8776 68.7275L28.9695 71.5225H26.0305L25.1224 68.7275L27.5 67Z" fill="white"/>
<path d="M52.5 67L54.8776 68.7275L53.9695 71.5225H51.0305L50.1224 68.7275L52.5 67Z" fill="white"/>
<path d="M77.5 67L79.8776 68.7275L78.9695 71.5225H76.0305L75.1224 68.7275L77.5 67Z" fill="white"/>
<path d="M2.5 90L4.87764 91.7275L3.96946 94.5225H1.03054L0.122359 91.7275L2.5 90Z" fill="white"/>
<path d="M27.5 90L29.8776 91.7275L28.9695 94.5225H26.0305L25.1224 91.7275L27.5 90Z" fill="white"/>
<path d="M52.5 90L54.8776 91.7275L53.9695 94.5225H51.0305L50.1224 91.7275L52.5 90Z" fill="white"/>
<path d="M77.5 90L79.8776 91.7275L78.9695 94.5225H76.0305L75.1224 91.7275L77.5 90Z" fill="white"/>
<path d="M2.5 113L4.87764 114.727L3.96946 117.523H1.03054L0.122359 114.727L2.5 113Z" fill="white"/>
<path d="M27.5 113L29.8776 114.727L28.9695 117.523H26.0305L25.1224 114.727L27.5 113Z" fill="white"/>
<path d="M52.5 113L54.8776 114.727L53.9695 117.523H51.0305L50.1224 114.727L52.5 113Z" fill="white"/>
<path d="M77.5 113L79.8776 114.727L78.9695 117.523H76.0305L75.1224 114.727L77.5 113Z" fill="white"/>
<path d="M100.5 0L102.878 1.72746L101.969 4.52254H99.0305L98.1224 1.72746L100.5 0Z" fill="white"/>
<path d="M125.5 0L127.878 1.72746L126.969 4.52254H124.031L123.122 1.72746L125.5 0Z" fill="white"/>
<path d="M150.5 0L152.878 1.72746L151.969 4.52254H149.031L148.122 1.72746L150.5 0Z" fill="white"/>
<path d="M100.5 23L102.878 24.7275L101.969 27.5225H99.0305L98.1224 24.7275L100.5 23Z" fill="white"/>
<path d="M125.5 23L127.878 24.7275L126.969 27.5225H124.031L123.122 24.7275L125.5 23Z" fill="white"/>
<path d="M150.5 23L152.878 24.7275L151.969 27.5225H149.031L148.122 24.7275L150.5 23Z" fill="white"/>
<path d="M100.5 46L102.878 47.7275L101.969 50.5225H99.0305L98.1224 47.7275L100.5 46Z" fill="white"/>
<path d="M125.5 46L127.878 47.7275L126.969 50.5225H124.031L123.122 47.7275L125.5 46Z" fill="white"/>
<path d="M150.5 46L152.878 47.7275L151.969 50.5225H149.031L148.122 47.7275L150.5 46Z" fill="white"/>
<path d="M100.5 67L102.878 68.7275L101.969 71.5225H99.0305L98.1224 68.7275L100.5 67Z" fill="white"/>
<path d="M125.5 67L127.878 68.7275L126.969 71.5225H124.031L123.122 68.7275L125.5 67Z" fill="white"/>
<path d="M150.5 67L152.878 68.7275L151.969 71.5225H149.031L148.122 68.7275L150.5 67Z" fill="white"/>
<path d="M100.5 90L102.878 91.7275L101.969 94.5225H99.0305L98.1224 91.7275L100.5 90Z" fill="white"/>
<path d="M125.5 90L127.878 91.7275L126.969 94.5225H124.031L123.122 91.7275L125.5 90Z" fill="white"/>
<path d="M150.5 90L152.878 91.7275L151.969 94.5225H149.031L148.122 91.7275L150.5 90Z" fill="white"/>
<path d="M100.5 113L102.878 114.727L101.969 117.523H99.0305L98.1224 114.727L100.5 113Z" fill="white"/>
<path d="M125.5 113L127.878 114.727L126.969 117.523H124.031L123.122 114.727L125.5 113Z" fill="white"/>
<path d="M150.5 113L152.878 114.727L151.969 117.523H149.031L148.122 114.727L150.5 113Z" fill="white"/>
</svg>
